<svg xmlns="http://www.w3.org/2000/svg" width="1200" height="900" viewBox="0 0 1200 900" role="img" aria-label="Portada romántica con luna, corazón y estrellas">
<title>Portada romántica con luna, corazón y estrellas</title>
<defs>
  <linearGradient id="bg" x1="0" y1="0" x2="1" y2="1"><stop offset="0" stop-color="#2a0d38"/><stop offset=".55" stop-color="#160719"/><stop offset="1" stop-color="#07030a"/></linearGradient>
  <radialGradient id="glow" cx="50%" cy="42%" r="55%"><stop offset="0" stop-color="#fff6d9" stop-opacity=".45"/><stop offset="1" stop-color="#fff6d9" stop-opacity="0"/></radialGradient>
  <filter id="soft" x="-20%" y="-20%" width="140%" height="140%"><feGaussianBlur stdDeviation="6"/></filter>
  <filter id="shadow" x="-20%" y="-20%" width="140%" height="140%"><feDropShadow dx="0" dy="18" stdDeviation="18" flood-color="#130713" flood-opacity=".35"/></filter>
  <pattern id="grain" width="90" height="90" patternUnits="userSpaceOnUse"><circle cx="14" cy="18" r="1.4" fill="#fff" opacity=".18"/><circle cx="59" cy="40" r="1" fill="#fff" opacity=".12"/><circle cx="78" cy="72" r="1.2" fill="#000" opacity=".08"/></pattern>
  <style>
    .gold{fill:#f4dda4} .rose{fill:#d76d8a} .wine{fill:#5d1f38} .cream{fill:#fff2d2} .ink{fill:#24121b} .blue{fill:#5e8aa8} .violet{fill:#49305c} .green{fill:#58734a} .line{fill:none;stroke:#f4dda4;stroke-width:7;stroke-linecap:round;stroke-linejoin:round} .thin{fill:none;stroke:#f4dda4;stroke-width:3;stroke-linecap:round;stroke-linejoin:round;opacity:.72}
  </style>
</defs>
<rect width="1200" height="900" rx="56" fill="url(#bg)"/>
<rect width="1200" height="900" rx="56" fill="url(#grain)" opacity=".55"/>
<ellipse cx="600" cy="410" rx="470" ry="345" fill="url(#glow)"/>
<g opacity=".85">
  <circle cx="110" cy="100" r="4" fill="#fff2c7"/><circle cx="220" cy="165" r="3" fill="#fff" opacity=".72"/><circle cx="1035" cy="120" r="4" fill="#fff2c7"/><circle cx="990" cy="244" r="2.8" fill="#fff" opacity=".68"/><circle cx="760" cy="94" r="3" fill="#fff2c7"/>
  <path d="M940 640l16 36 36 16-36 16-16 36-16-36-36-16 36-16z" fill="#fff2c7" opacity=".28"/>
  <path d="M190 620l11 25 25 11-25 11-11 25-11-25-25-11 25-11z" fill="#fff2c7" opacity=".24"/>
</g>

<g filter="url(#shadow)">
  <circle cx="905" cy="185" r="98" fill="#f4dda4" opacity=".95"/>
  <circle cx="938" cy="160" r="92" fill="#1a0a24" opacity=".95"/>
  <path d="M600 690C410 530 250 440 260 285c7-107 105-176 203-138 64 25 106 86 137 142 31-56 73-117 137-142 98-38 196 31 203 138 10 155-150 245-340 405z" fill="#d76d8a" opacity=".92"/>
  <path d="M600 630C450 504 330 426 338 306c5-80 79-131 153-102 48 18 82 68 109 116 27-48 61-98 109-116 74-29 148 22 153 102 8 120-112 198-262 324z" fill="#fff2d2" opacity=".18"/>
  <path class="line" d="M287 720c142-86 263-88 379-40 104 43 187 28 295-37" opacity=".62"/>
</g>

</svg>