<svg xmlns="http://www.w3.org/2000/svg" width="1200" height="900" viewBox="0 0 1200 900" role="img" aria-label="Carta romántica con vela, pluma y sello de corazón">
<title>Carta romántica con vela, pluma y sello de corazón</title>
<defs>
  <linearGradient id="bg" x1="0" y1="0" x2="1" y2="1"><stop offset="0" stop-color="#fff4dc"/><stop offset=".65" stop-color="#e8c7aa"/><stop offset="1" stop-color="#bc8294"/></linearGradient>
  <radialGradient id="glow" cx="50%" cy="42%" r="55%"><stop offset="0" stop-color="#fff6d9" stop-opacity=".45"/><stop offset="1" stop-color="#fff6d9" stop-opacity="0"/></radialGradient>
  <filter id="soft" x="-20%" y="-20%" width="140%" height="140%"><feGaussianBlur stdDeviation="6"/></filter>
  <filter id="shadow" x="-20%" y="-20%" width="140%" height="140%"><feDropShadow dx="0" dy="18" stdDeviation="18" flood-color="#130713" flood-opacity=".35"/></filter>
  <pattern id="grain" width="90" height="90" patternUnits="userSpaceOnUse"><circle cx="14" cy="18" r="1.4" fill="#fff" opacity=".18"/><circle cx="59" cy="40" r="1" fill="#fff" opacity=".12"/><circle cx="78" cy="72" r="1.2" fill="#000" opacity=".08"/></pattern>
  <style>
    .gold{fill:#f4dda4} .rose{fill:#d76d8a} .wine{fill:#5d1f38} .cream{fill:#fff2d2} .ink{fill:#24121b} .blue{fill:#5e8aa8} .violet{fill:#49305c} .green{fill:#58734a} .line{fill:none;stroke:#f4dda4;stroke-width:7;stroke-linecap:round;stroke-linejoin:round} .thin{fill:none;stroke:#f4dda4;stroke-width:3;stroke-linecap:round;stroke-linejoin:round;opacity:.72}
  </style>
</defs>
<rect width="1200" height="900" rx="56" fill="url(#bg)"/>
<rect width="1200" height="900" rx="56" fill="url(#grain)" opacity=".55"/>
<ellipse cx="600" cy="410" rx="470" ry="345" fill="url(#glow)"/>
<g opacity=".85">
  <circle cx="110" cy="100" r="4" fill="#fff2c7"/><circle cx="220" cy="165" r="3" fill="#fff" opacity=".72"/><circle cx="1035" cy="120" r="4" fill="#fff2c7"/><circle cx="990" cy="244" r="2.8" fill="#fff" opacity=".68"/><circle cx="760" cy="94" r="3" fill="#fff2c7"/>
  <path d="M940 640l16 36 36 16-36 16-16 36-16-36-36-16 36-16z" fill="#fff2c7" opacity=".28"/>
  <path d="M190 620l11 25 25 11-25 11-11 25-11-25-25-11 25-11z" fill="#fff2c7" opacity=".24"/>
</g>

<g filter="url(#shadow)">
  <rect x="260" y="236" width="560" height="390" rx="28" fill="#fff2d2" transform="rotate(-5 540 430)"/>
  <path d="M300 305l250 180 252-222" fill="none" stroke="#ba8d58" stroke-width="9" opacity=".55" transform="rotate(-5 540 430)"/>
  <circle cx="552" cy="436" r="44" fill="#ba2f55"/>
  <path d="M552 462c-38-29-70-51-69-84 1-26 27-39 48-27 10 6 17 15 21 26 4-11 11-20 21-26 21-12 47 1 48 27 1 33-31 55-69 84z" fill="#ffe8e0" opacity=".86"/>
  <rect x="810" y="310" width="70" height="220" rx="30" fill="#f1bd8e"/>
  <path d="M845 260c28 44 24 80 0 114-24-34-28-70 0-114z" fill="#ffe497"/><path d="M845 284c12 22 10 38 0 56-10-18-12-34 0-56z" fill="#ff8f60"/>
  <path class="line" d="M698 640c74-148 182-238 318-310"/>
  <path d="M1008 318c-94 32-152 91-184 171 102-28 164-84 184-171z" fill="#f4dda4" opacity=".78"/>
</g>

</svg>