<svg xmlns="http://www.w3.org/2000/svg" width="1200" height="900" viewBox="0 0 1200 900" role="img" aria-label="Ventana de amanecer y carta para la distancia">
<title>Ventana de amanecer y carta para la distancia</title>
<defs>
  <linearGradient id="bg" x1="0" y1="0" x2="1" y2="1"><stop offset="0" stop-color="#ffe1b6"/><stop offset=".55" stop-color="#ffd4de"/><stop offset="1" stop-color="#8ea7c5"/></linearGradient>
  <radialGradient id="glow" cx="50%" cy="42%" r="55%"><stop offset="0" stop-color="#fff6d9" stop-opacity=".45"/><stop offset="1" stop-color="#fff6d9" stop-opacity="0"/></radialGradient>
  <filter id="soft" x="-20%" y="-20%" width="140%" height="140%"><feGaussianBlur stdDeviation="6"/></filter>
  <filter id="shadow" x="-20%" y="-20%" width="140%" height="140%"><feDropShadow dx="0" dy="18" stdDeviation="18" flood-color="#130713" flood-opacity=".35"/></filter>
  <pattern id="grain" width="90" height="90" patternUnits="userSpaceOnUse"><circle cx="14" cy="18" r="1.4" fill="#fff" opacity=".18"/><circle cx="59" cy="40" r="1" fill="#fff" opacity=".12"/><circle cx="78" cy="72" r="1.2" fill="#000" opacity=".08"/></pattern>
  <style>
    .gold{fill:#f4dda4} .rose{fill:#d76d8a} .wine{fill:#5d1f38} .cream{fill:#fff2d2} .ink{fill:#24121b} .blue{fill:#5e8aa8} .violet{fill:#49305c} .green{fill:#58734a} .line{fill:none;stroke:#f4dda4;stroke-width:7;stroke-linecap:round;stroke-linejoin:round} .thin{fill:none;stroke:#f4dda4;stroke-width:3;stroke-linecap:round;stroke-linejoin:round;opacity:.72}
  </style>
</defs>
<rect width="1200" height="900" rx="56" fill="url(#bg)"/>
<rect width="1200" height="900" rx="56" fill="url(#grain)" opacity=".55"/>
<ellipse cx="600" cy="410" rx="470" ry="345" fill="url(#glow)"/>
<g opacity=".85">
  <circle cx="110" cy="100" r="4" fill="#fff2c7"/><circle cx="220" cy="165" r="3" fill="#fff" opacity=".72"/><circle cx="1035" cy="120" r="4" fill="#fff2c7"/><circle cx="990" cy="244" r="2.8" fill="#fff" opacity=".68"/><circle cx="760" cy="94" r="3" fill="#fff2c7"/>
  <path d="M940 640l16 36 36 16-36 16-16 36-16-36-36-16 36-16z" fill="#fff2c7" opacity=".28"/>
  <path d="M190 620l11 25 25 11-25 11-11 25-11-25-25-11 25-11z" fill="#fff2c7" opacity=".24"/>
</g>

<g filter="url(#shadow)">
  <rect x="210" y="155" width="520" height="500" rx="38" fill="#6b425a" opacity=".88"/>
  <rect x="250" y="195" width="440" height="420" rx="24" fill="#ffd7a2"/>
  <circle cx="470" cy="435" r="160" fill="#ffbf67" opacity=".55"/>
  <path d="M270 520c125-115 270-120 400-18v113H270z" fill="#95b8c8" opacity=".72"/>
  <line x1="470" y1="195" x2="470" y2="615" stroke="#6b425a" stroke-width="14"/><line x1="250" y1="405" x2="690" y2="405" stroke="#6b425a" stroke-width="14"/>
  <rect x="725" y="450" width="250" height="145" rx="20" fill="#fff2d2" transform="rotate(8 850 522)"/>
  <path d="M750 486l100 70 112-46" fill="none" stroke="#c78668" stroke-width="6" opacity=".65" transform="rotate(8 850 522)"/>
  <path d="M888 405c40-38 100-12 95 42-5 68-95 98-95 98s-90-30-95-98c-5-54 55-80 95-42z" fill="#d76d8a" opacity=".88"/>
</g>

</svg>