<svg xmlns="http://www.w3.org/2000/svg" width="1200" height="900" viewBox="0 0 1200 900" role="img" aria-label="Libreta de declaración con corazón, risa y lágrima">
<title>Libreta de declaración con corazón, risa y lágrima</title>
<defs>
  <linearGradient id="bg" x1="0" y1="0" x2="1" y2="1"><stop offset="0" stop-color="#ffece2"/><stop offset=".62" stop-color="#cf8a95"/><stop offset="1" stop-color="#5e1e3b"/></linearGradient>
  <radialGradient id="glow" cx="50%" cy="42%" r="55%"><stop offset="0" stop-color="#fff6d9" stop-opacity=".45"/><stop offset="1" stop-color="#fff6d9" stop-opacity="0"/></radialGradient>
  <filter id="soft" x="-20%" y="-20%" width="140%" height="140%"><feGaussianBlur stdDeviation="6"/></filter>
  <filter id="shadow" x="-20%" y="-20%" width="140%" height="140%"><feDropShadow dx="0" dy="18" stdDeviation="18" flood-color="#130713" flood-opacity=".35"/></filter>
  <pattern id="grain" width="90" height="90" patternUnits="userSpaceOnUse"><circle cx="14" cy="18" r="1.4" fill="#fff" opacity=".18"/><circle cx="59" cy="40" r="1" fill="#fff" opacity=".12"/><circle cx="78" cy="72" r="1.2" fill="#000" opacity=".08"/></pattern>
  <style>
    .gold{fill:#f4dda4} .rose{fill:#d76d8a} .wine{fill:#5d1f38} .cream{fill:#fff2d2} .ink{fill:#24121b} .blue{fill:#5e8aa8} .violet{fill:#49305c} .green{fill:#58734a} .line{fill:none;stroke:#f4dda4;stroke-width:7;stroke-linecap:round;stroke-linejoin:round} .thin{fill:none;stroke:#f4dda4;stroke-width:3;stroke-linecap:round;stroke-linejoin:round;opacity:.72}
  </style>
</defs>
<rect width="1200" height="900" rx="56" fill="url(#bg)"/>
<rect width="1200" height="900" rx="56" fill="url(#grain)" opacity=".55"/>
<ellipse cx="600" cy="410" rx="470" ry="345" fill="url(#glow)"/>
<g opacity=".85">
  <circle cx="110" cy="100" r="4" fill="#fff2c7"/><circle cx="220" cy="165" r="3" fill="#fff" opacity=".72"/><circle cx="1035" cy="120" r="4" fill="#fff2c7"/><circle cx="990" cy="244" r="2.8" fill="#fff" opacity=".68"/><circle cx="760" cy="94" r="3" fill="#fff2c7"/>
  <path d="M940 640l16 36 36 16-36 16-16 36-16-36-36-16 36-16z" fill="#fff2c7" opacity=".28"/>
  <path d="M190 620l11 25 25 11-25 11-11 25-11-25-25-11 25-11z" fill="#fff2c7" opacity=".24"/>
</g>

<g filter="url(#shadow)">
  <rect x="250" y="190" width="620" height="480" rx="36" fill="#f7dfb8" transform="rotate(-2 560 430)"/>
  <path d="M560 205v450" stroke="#b88255" stroke-width="8" opacity=".45"/>
  <path d="M330 310h160M330 370h150M330 430h170M630 320h160M630 380h145M630 440h165" class="thin" stroke="#9f6b4a" opacity=".62"/>
  <path d="M560 545c-75-58-132-96-128-155 3-47 49-71 85-48 20 13 33 34 43 62 10-28 23-49 43-62 36-23 82 1 85 48 4 59-53 97-128 155z" fill="#c43f67"/>
  <path d="M405 560q45 45 90 0" class="line" stroke="#5d1f38"/><path d="M720 545c-26 38-26 62 0 95 26-33 26-57 0-95z" fill="#7cb4d8"/>
  <circle cx="452" cy="520" r="12" fill="#5d1f38"/><circle cx="512" cy="520" r="12" fill="#5d1f38"/>
</g>

</svg>