<svg xmlns="http://www.w3.org/2000/svg" width="1200" height="900" viewBox="0 0 1200 900" role="img" aria-label="Pesadilla de indiferencia en una noche azul">
<title>Pesadilla de indiferencia en una noche azul</title>
<defs>
  <linearGradient id="bg" x1="0" y1="0" x2="1" y2="1"><stop offset="0" stop-color="#1a1530"/><stop offset=".58" stop-color="#3d2b5a"/><stop offset="1" stop-color="#090611"/></linearGradient>
  <radialGradient id="glow" cx="50%" cy="42%" r="55%"><stop offset="0" stop-color="#fff6d9" stop-opacity=".45"/><stop offset="1" stop-color="#fff6d9" stop-opacity="0"/></radialGradient>
  <filter id="soft" x="-20%" y="-20%" width="140%" height="140%"><feGaussianBlur stdDeviation="6"/></filter>
  <filter id="shadow" x="-20%" y="-20%" width="140%" height="140%"><feDropShadow dx="0" dy="18" stdDeviation="18" flood-color="#130713" flood-opacity=".35"/></filter>
  <pattern id="grain" width="90" height="90" patternUnits="userSpaceOnUse"><circle cx="14" cy="18" r="1.4" fill="#fff" opacity=".18"/><circle cx="59" cy="40" r="1" fill="#fff" opacity=".12"/><circle cx="78" cy="72" r="1.2" fill="#000" opacity=".08"/></pattern>
  <style>
    .gold{fill:#f4dda4} .rose{fill:#d76d8a} .wine{fill:#5d1f38} .cream{fill:#fff2d2} .ink{fill:#24121b} .blue{fill:#5e8aa8} .violet{fill:#49305c} .green{fill:#58734a} .line{fill:none;stroke:#f4dda4;stroke-width:7;stroke-linecap:round;stroke-linejoin:round} .thin{fill:none;stroke:#f4dda4;stroke-width:3;stroke-linecap:round;stroke-linejoin:round;opacity:.72}
  </style>
</defs>
<rect width="1200" height="900" rx="56" fill="url(#bg)"/>
<rect width="1200" height="900" rx="56" fill="url(#grain)" opacity=".55"/>
<ellipse cx="600" cy="410" rx="470" ry="345" fill="url(#glow)"/>
<g opacity=".85">
  <circle cx="110" cy="100" r="4" fill="#fff2c7"/><circle cx="220" cy="165" r="3" fill="#fff" opacity=".72"/><circle cx="1035" cy="120" r="4" fill="#fff2c7"/><circle cx="990" cy="244" r="2.8" fill="#fff" opacity=".68"/><circle cx="760" cy="94" r="3" fill="#fff2c7"/>
  <path d="M940 640l16 36 36 16-36 16-16 36-16-36-36-16 36-16z" fill="#fff2c7" opacity=".28"/>
  <path d="M190 620l11 25 25 11-25 11-11 25-11-25-25-11 25-11z" fill="#fff2c7" opacity=".24"/>
</g>

<g filter="url(#shadow)">
  <circle cx="910" cy="165" r="95" fill="#e9eefc" opacity=".88"/>
  <circle cx="950" cy="140" r="85" fill="#2b2147" opacity=".9"/>
  <path d="M160 680c185-130 405-128 600-38 100 46 185 48 290-4v180H160z" fill="#130b1c" opacity=".72"/>
  <path d="M250 720c122-220 250-318 380-318s258 98 380 318" fill="none" stroke="#8aa0d0" stroke-width="18" opacity=".28"/>
  <g opacity=".86"><rect x="410" y="250" width="300" height="360" rx="18" fill="#191225"/><rect x="450" y="290" width="86" height="90" fill="#463f63"/><rect x="584" y="290" width="86" height="90" fill="#463f63"/><rect x="450" y="420" width="86" height="90" fill="#463f63"/><rect x="584" y="420" width="86" height="90" fill="#463f63"/></g>
  <path d="M270 604c35-82 95-125 180-125" class="line" opacity=".7"/><circle cx="255" cy="630" r="34" fill="#fff2d2"/><path d="M255 664c-56 58-80 105-72 152h144c8-47-16-94-72-152z" fill="#6b375a"/>
  <path d="M840 384c55 42 72 100 60 174H780c-12-74 5-132 60-174z" fill="#eee2ff" opacity=".25"/><circle cx="840" cy="365" r="34" fill="#eee2ff" opacity=".2"/>
</g>

</svg>