<svg xmlns="http://www.w3.org/2000/svg" width="1200" height="900" viewBox="0 0 1200 900" role="img" aria-label="Serendipia de dos caminos que se encuentran">
<title>Serendipia de dos caminos que se encuentran</title>
<defs>
  <linearGradient id="bg" x1="0" y1="0" x2="1" y2="1"><stop offset="0" stop-color="#dff4ff"/><stop offset=".55" stop-color="#b7d7ef"/><stop offset="1" stop-color="#7c95c7"/></linearGradient>
  <radialGradient id="glow" cx="50%" cy="42%" r="55%"><stop offset="0" stop-color="#fff6d9" stop-opacity=".45"/><stop offset="1" stop-color="#fff6d9" stop-opacity="0"/></radialGradient>
  <filter id="soft" x="-20%" y="-20%" width="140%" height="140%"><feGaussianBlur stdDeviation="6"/></filter>
  <filter id="shadow" x="-20%" y="-20%" width="140%" height="140%"><feDropShadow dx="0" dy="18" stdDeviation="18" flood-color="#130713" flood-opacity=".35"/></filter>
  <pattern id="grain" width="90" height="90" patternUnits="userSpaceOnUse"><circle cx="14" cy="18" r="1.4" fill="#fff" opacity=".18"/><circle cx="59" cy="40" r="1" fill="#fff" opacity=".12"/><circle cx="78" cy="72" r="1.2" fill="#000" opacity=".08"/></pattern>
  <style>
    .gold{fill:#f4dda4} .rose{fill:#d76d8a} .wine{fill:#5d1f38} .cream{fill:#fff2d2} .ink{fill:#24121b} .blue{fill:#5e8aa8} .violet{fill:#49305c} .green{fill:#58734a} .line{fill:none;stroke:#f4dda4;stroke-width:7;stroke-linecap:round;stroke-linejoin:round} .thin{fill:none;stroke:#f4dda4;stroke-width:3;stroke-linecap:round;stroke-linejoin:round;opacity:.72}
  </style>
</defs>
<rect width="1200" height="900" rx="56" fill="url(#bg)"/>
<rect width="1200" height="900" rx="56" fill="url(#grain)" opacity=".55"/>
<ellipse cx="600" cy="410" rx="470" ry="345" fill="url(#glow)"/>
<g opacity=".85">
  <circle cx="110" cy="100" r="4" fill="#fff2c7"/><circle cx="220" cy="165" r="3" fill="#fff" opacity=".72"/><circle cx="1035" cy="120" r="4" fill="#fff2c7"/><circle cx="990" cy="244" r="2.8" fill="#fff" opacity=".68"/><circle cx="760" cy="94" r="3" fill="#fff2c7"/>
  <path d="M940 640l16 36 36 16-36 16-16 36-16-36-36-16 36-16z" fill="#fff2c7" opacity=".28"/>
  <path d="M190 620l11 25 25 11-25 11-11 25-11-25-25-11 25-11z" fill="#fff2c7" opacity=".24"/>
</g>

<g filter="url(#shadow)">
  <path d="M0 635c170-86 320-102 500-48 178 54 310 54 700-70v383H0z" fill="#557aa3" opacity=".55"/>
  <path d="M130 820c180-260 320-378 470-378s290 118 470 378" fill="none" stroke="#fff1d0" stroke-width="58" opacity=".72"/>
  <path d="M170 820c50-194 100-315 205-385 83-55 166-68 225-78" fill="none" stroke="#f1be78" stroke-width="28" opacity=".84"/>
  <path d="M1030 820c-50-194-100-315-205-385-83-55-166-68-225-78" fill="none" stroke="#d76d8a" stroke-width="28" opacity=".78"/>
  <circle cx="600" cy="360" r="72" fill="#fff2d2"/><path d="M600 410c-58-45-100-74-98-121 2-35 38-53 65-35 16 10 26 25 33 47 7-22 17-37 33-47 27-18 63 0 65 35 2 47-40 76-98 121z" fill="#d76d8a"/>
  <path class="thin" d="M256 180c90-40 150-40 234 0 82 39 146 39 236 0M330 250c120 62 250 62 390 0"/>
</g>

</svg>