<svg xmlns="http://www.w3.org/2000/svg" width="1200" height="900" viewBox="0 0 1200 900" role="img" aria-label="Torre, trenza y abrazo bajo luna violeta">
<title>Torre, trenza y abrazo bajo luna violeta</title>
<defs>
  <linearGradient id="bg" x1="0" y1="0" x2="1" y2="1"><stop offset="0" stop-color="#efe6ff"/><stop offset=".55" stop-color="#bda6d4"/><stop offset="1" stop-color="#46304f"/></linearGradient>
  <radialGradient id="glow" cx="50%" cy="42%" r="55%"><stop offset="0" stop-color="#fff6d9" stop-opacity=".45"/><stop offset="1" stop-color="#fff6d9" stop-opacity="0"/></radialGradient>
  <filter id="soft" x="-20%" y="-20%" width="140%" height="140%"><feGaussianBlur stdDeviation="6"/></filter>
  <filter id="shadow" x="-20%" y="-20%" width="140%" height="140%"><feDropShadow dx="0" dy="18" stdDeviation="18" flood-color="#130713" flood-opacity=".35"/></filter>
  <pattern id="grain" width="90" height="90" patternUnits="userSpaceOnUse"><circle cx="14" cy="18" r="1.4" fill="#fff" opacity=".18"/><circle cx="59" cy="40" r="1" fill="#fff" opacity=".12"/><circle cx="78" cy="72" r="1.2" fill="#000" opacity=".08"/></pattern>
  <style>
    .gold{fill:#f4dda4} .rose{fill:#d76d8a} .wine{fill:#5d1f38} .cream{fill:#fff2d2} .ink{fill:#24121b} .blue{fill:#5e8aa8} .violet{fill:#49305c} .green{fill:#58734a} .line{fill:none;stroke:#f4dda4;stroke-width:7;stroke-linecap:round;stroke-linejoin:round} .thin{fill:none;stroke:#f4dda4;stroke-width:3;stroke-linecap:round;stroke-linejoin:round;opacity:.72}
  </style>
</defs>
<rect width="1200" height="900" rx="56" fill="url(#bg)"/>
<rect width="1200" height="900" rx="56" fill="url(#grain)" opacity=".55"/>
<ellipse cx="600" cy="410" rx="470" ry="345" fill="url(#glow)"/>
<g opacity=".85">
  <circle cx="110" cy="100" r="4" fill="#fff2c7"/><circle cx="220" cy="165" r="3" fill="#fff" opacity=".72"/><circle cx="1035" cy="120" r="4" fill="#fff2c7"/><circle cx="990" cy="244" r="2.8" fill="#fff" opacity=".68"/><circle cx="760" cy="94" r="3" fill="#fff2c7"/>
  <path d="M940 640l16 36 36 16-36 16-16 36-16-36-36-16 36-16z" fill="#fff2c7" opacity=".28"/>
  <path d="M190 620l11 25 25 11-25 11-11 25-11-25-25-11 25-11z" fill="#fff2c7" opacity=".24"/>
</g>

<g filter="url(#shadow)">
  <circle cx="900" cy="165" r="110" fill="#f4dda4" opacity=".86"/><circle cx="936" cy="134" r="102" fill="#6a4d86" opacity=".74"/>
  <g transform="translate(210 175)"><rect x="110" y="120" width="180" height="530" rx="40" fill="#6d5d75"/><path d="M80 120h240L200 0z" fill="#3e304c"/><rect x="166" y="190" width="68" height="90" rx="34" fill="#241827"/><path d="M235 230c180 122 216 252 120 390" fill="none" stroke="#e7c76b" stroke-width="24" stroke-linecap="round"/><path d="M235 230c140 118 168 246 86 372" fill="none" stroke="#f4dda4" stroke-width="7" stroke-linecap="round" opacity=".7"/></g>
  <path d="M665 655c40-55 92-55 132 0" class="line" opacity=".75"/><circle cx="685" cy="585" r="36" fill="#fff2d2"/><circle cx="776" cy="585" r="36" fill="#fff2d2"/><path d="M650 720c15-72 42-112 80-142 38 30 65 70 80 142z" fill="#5d1f38"/><path d="M708 720c15-70 42-110 78-140 36 30 62 70 77 140z" fill="#d76d8a" opacity=".9"/>
  <path d="M735 648c-42 42-82 42-120 0M745 648c42 42 82 42 120 0" class="thin"/>
  <path d="M590 370l16 36 36 16-36 16-16 36-16-36-36-16 36-16z" fill="#f4dda4" opacity=".34"/>
</g>

</svg>