<svg xmlns="http://www.w3.org/2000/svg" width="1200" height="900" viewBox="0 0 1200 900" role="img" aria-label="País imposible con sombrero, cartas y puerta">
<title>País imposible con sombrero, cartas y puerta</title>
<defs>
  <linearGradient id="bg" x1="0" y1="0" x2="1" y2="1"><stop offset="0" stop-color="#e5f7ff"/><stop offset=".55" stop-color="#b2dcf3"/><stop offset="1" stop-color="#7db9d7"/></linearGradient>
  <radialGradient id="glow" cx="50%" cy="42%" r="55%"><stop offset="0" stop-color="#fff6d9" stop-opacity=".45"/><stop offset="1" stop-color="#fff6d9" stop-opacity="0"/></radialGradient>
  <filter id="soft" x="-20%" y="-20%" width="140%" height="140%"><feGaussianBlur stdDeviation="6"/></filter>
  <filter id="shadow" x="-20%" y="-20%" width="140%" height="140%"><feDropShadow dx="0" dy="18" stdDeviation="18" flood-color="#130713" flood-opacity=".35"/></filter>
  <pattern id="grain" width="90" height="90" patternUnits="userSpaceOnUse"><circle cx="14" cy="18" r="1.4" fill="#fff" opacity=".18"/><circle cx="59" cy="40" r="1" fill="#fff" opacity=".12"/><circle cx="78" cy="72" r="1.2" fill="#000" opacity=".08"/></pattern>
  <style>
    .gold{fill:#f4dda4} .rose{fill:#d76d8a} .wine{fill:#5d1f38} .cream{fill:#fff2d2} .ink{fill:#24121b} .blue{fill:#5e8aa8} .violet{fill:#49305c} .green{fill:#58734a} .line{fill:none;stroke:#f4dda4;stroke-width:7;stroke-linecap:round;stroke-linejoin:round} .thin{fill:none;stroke:#f4dda4;stroke-width:3;stroke-linecap:round;stroke-linejoin:round;opacity:.72}
  </style>
</defs>
<rect width="1200" height="900" rx="56" fill="url(#bg)"/>
<rect width="1200" height="900" rx="56" fill="url(#grain)" opacity=".55"/>
<ellipse cx="600" cy="410" rx="470" ry="345" fill="url(#glow)"/>
<g opacity=".85">
  <circle cx="110" cy="100" r="4" fill="#fff2c7"/><circle cx="220" cy="165" r="3" fill="#fff" opacity=".72"/><circle cx="1035" cy="120" r="4" fill="#fff2c7"/><circle cx="990" cy="244" r="2.8" fill="#fff" opacity=".68"/><circle cx="760" cy="94" r="3" fill="#fff2c7"/>
  <path d="M940 640l16 36 36 16-36 16-16 36-16-36-36-16 36-16z" fill="#fff2c7" opacity=".28"/>
  <path d="M190 620l11 25 25 11-25 11-11 25-11-25-25-11 25-11z" fill="#fff2c7" opacity=".24"/>
</g>

<g filter="url(#shadow)">
  <path d="M0 640c210-90 350-78 520-24 195 62 385 32 680-70v354H0z" fill="#4e9c65" opacity=".68"/>
  <path d="M606 700c-92-180-72-340 62-482 132 142 154 302 62 482z" fill="#fff2d2" opacity=".84"/><path d="M668 218v482" stroke="#74a35a" stroke-width="12"/><path d="M666 420c-90-72-170-58-225 18 92 62 166 56 225-18zM674 494c88-72 168-54 225 22-88 68-166 58-225-22z" fill="#5e9b68"/>
  <rect x="210" y="410" width="155" height="230" rx="18" fill="#fff" transform="rotate(-10 287 525)"/><text x="275" y="540" font-family="Georgia" font-size="92" fill="#c02846" transform="rotate(-10 287 525)">♥</text>
  <rect x="850" y="415" width="155" height="230" rx="18" fill="#fff" transform="rotate(12 927 530)"/><text x="902" y="545" font-family="Georgia" font-size="92" fill="#253b75" transform="rotate(12 927 530)">♠</text>
  <g transform="translate(420 270)"><rect x="100" y="0" width="210" height="180" rx="18" fill="#2b1e3c"/><rect x="62" y="170" width="285" height="40" rx="20" fill="#2b1e3c"/><rect x="100" y="128" width="210" height="32" fill="#d76d8a"/><rect x="226" y="28" width="58" height="44" fill="#fff2d2"/><text x="239" y="58" font-family="Georgia" font-size="26" fill="#2b1e3c">6</text></g>
  <path d="M612 215c42-28 84-28 126 0" class="line" opacity=".7"/><path d="M150 212c48 30 95 30 142 0" class="thin"/><path d="M922 210c48 30 95 30 142 0" class="thin"/>
</g>

</svg>